PathFileType	4	(x/y/z)	S01_P20_T22
DataRate	CameraRate	NumFrames	NumMarkers	Units	OrigDataRate	OrigDataStartFrame	OrigNumFrames
240	240	5	51	mm	240	203	404
Frame#	Time	Sternum			R.Acromium			L.Acromium			Top.Head			R.ASIS			L.ASIS			R.PSIS			L.PSIS			R.Great.Tro			L.Great.Tro			R.Iliac.Crest			L.Iliac.Crest			V.Sacral			R.Thigh.Upper.Post			R.Thigh.Lower.Ant			R.Thigh.Lower.Post			R.Thigh.Upper.Ant			R.Knee.Lat			R.Knee.Med			R.Shank.Upper.Post			R.Shank.Lower.Ant			R.Shank.Lower.Post			R.Shank.Upper.Ant			R.Ankle.Lat			R.Ankle.Med			R.Heel.Upper			R.Heel.Med			R.Heel.Lat			R.Toe.Lat			R.Toe.Med			R.Toe.Tip			L.Thigh.Upper.Post			L.Thigh.Lower.Ant			L.Thigh.Lower.Post			L.Thigh.Upper.Ant			L.Knee.Lat			L.Knee.Med			L.Shank.Upper.Post			L.Shank.Lower.Ant			L.Shank.Lower.Post			L.Shank.Upper.Ant			L.Ankle.Lat			L.Ankle.Med			L.Heel.Upper			L.Heel.Med			L.Heel.Lat			L.Toe.Lat			L.Toe.Med			L.Toe.Tip			Cervical.Spine			Back			
		X1	Y1	Z1	X2	Y2	Z2	X3	Y3	Z3	X4	Y4	Z4	X5	Y5	Z5	X6	Y6	Z6	X7	Y7	Z7	X8	Y8	Z8	X9	Y9	Z9	X10	Y10	Z10	X11	Y11	Z11	X12	Y12	Z12	X13	Y13	Z13	X14	Y14	Z14	X15	Y15	Z15	X16	Y16	Z16	X17	Y17	Z17	X18	Y18	Z18	X19	Y19	Z19	X20	Y20	Z20	X21	Y21	Z21	X22	Y22	Z22	X23	Y23	Z23	X24	Y24	Z24	X25	Y25	Z25	X26	Y26	Z26	X27	Y27	Z27	X28	Y28	Z28	X29	Y29	Z29	X30	Y30	Z30	X31	Y31	Z31	X32	Y32	Z32	X33	Y33	Z33	X34	Y34	Z34	X35	Y35	Z35	X36	Y36	Z36	X37	Y37	Z37	X38	Y38	Z38	X39	Y39	Z39	X40	Y40	Z40	X41	Y41	Z41	X42	Y42	Z42	X43	Y43	Z43	X44	Y44	Z44	X45	Y45	Z45	X46	Y46	Z46	X47	Y47	Z47	X48	Y48	Z48	X49	Y49	Z49	X50	Y50	Z50	X51	Y51	Z51	

203	0.84167	-276.18	1276.5	273.17	-367.18	1522.1	465.93	-419.23	1548.9	139.01	-363.53	1851.8	298.33	-324.08	1017.6	425.52	-326.94	1031.5	161.13	-561.14	1072.7	331.94	-562.67	1070.2	229.08	-408.46	965.35	501.8	-425.87	986.57	76.003	-406.35	1118.8	493.02	-437.81	1117.5	89.956	-575.31	1034.8	278.57	-443.25	658.77	468.87	-379.13	583.32	440.14	-447.39	571.98	446.41	-370.48	671.02	464.27	-432.67	505.11	437.03	-429.68	511.18	295.15	-529.74	365.68	457.07	-497.64	270.96	409.83	-554.39	299.82	444.37	-475.46	338.76	429.35	-617.59	107.85	403.08	-588.07	108.9	309.31	-691.7	78.829	344.61	-677.54	47.362	317.22	-683.65	49.563	381.58	-495.57	35.743	445.27	-460.06	39.842	320.69	-398.13	53.095	378.55	-334.65	704.3	92.071	-228.61	673.7	84.358	-287.96	627.39	108.72	-284.12	750.2	68.233	-209.79	571.1	94.422	-174.2	582.51	236.34	-246.31	432.1	79.534	-175.79	349.09	100.97	-237.91	354.7	84.341	-183.04	424.95	91.916	-229.88	140.14	119.96	-195.53	156.69	214.42	-294.24	102.99	174	-276.9	80.148	207.32	-284.11	76.184	145.48	-82.862	78.308	91.277	-46.275	97.378	208.84	8.6474	111.94	150.5	-474.64	1593.8	316.55	-569.5	1289.6	328.53
204	0.84583	-270.18	1274.9	272.83	-360.98	1520.7	465.56	-412.92	1547.6	138.65	-357.23	1850.6	298.11	-318.45	1016.3	425.36	-321.02	1030.1	160.78	-555.41	1071.6	331.52	-556.92	1068.9	228.69	-403.13	964.4	501.62	-420	985.19	75.71	-400.67	1117.6	492.72	-432.05	1115.9	89.548	-569.55	1033.5	278.15	-439.56	658.15	468.79	-375.91	582.39	440.15	-444.13	571.37	446.39	-366.69	670.01	464.36	-429.94	504.29	437.03	-426.6	510.3	295.15	-527.84	365.42	456.99	-496.25	270.48	409.78	-552.87	299.71	444.24	-473.69	338.17	429.32	-617.26	108.07	402.93	-587.67	108.97	309.17	-691.44	79.207	344.4	-677.33	47.68	317.06	-683.5	49.957	381.39	-495.56	35.691	445.31	-459.86	39.838	320.68	-397.97	52.749	378.64	-328.72	703	92.13	-222.61	672.57	84.539	-281.92	626.22	108.95	-278.2	748.97	68.226	-203.07	570.39	94.71	-168.34	581.58	236.81	-236.54	430.65	79.187	-164.22	349.14	100.6	-226.41	353.4	83.734	-173.14	424.87	91.823	-213.24	138.64	118.65	-179.81	155.71	213.36	-276.94	99.634	172.2	-259.15	77.047	205.55	-265.9	73.131	143.63	-64.479	80.642	90.578	-29.063	100.16	208.42	25.802	116.35	150.45	-468.49	1592.7	316.22	-563.47	1288.4	328.02
205	0.85	-264.15	1273.2	272.48	-354.79	1519.3	465.16	-406.59	1546.2	138.27	-350.91	1849.3	297.86	-312.81	1014.9	425.19	-315.06	1028.6	160.42	-549.66	1070.4	331.1	-551.14	1067.6	228.31	-397.77	963.43	501.44	-414.09	983.75	75.411	-394.98	1116.3	492.41	-426.27	1114.3	89.121	-563.77	1032.2	277.73	-435.82	657.51	468.72	-372.63	581.43	440.17	-440.81	570.73	446.38	-362.86	668.97	464.44	-427.14	503.44	437.04	-423.46	509.39	295.16	-525.88	365.15	456.91	-494.82	269.99	409.74	-551.3	299.59	444.11	-471.87	337.55	429.3	-616.92	108.3	402.78	-587.25	109.07	309.03	-691.18	79.614	344.19	-677.13	48.025	316.88	-683.35	50.372	381.2	-495.56	35.65	445.36	-459.66	39.837	320.68	-397.81	52.409	378.73	-322.79	701.63	92.154	-216.61	671.36	84.7	-275.89	624.98	109.15	-272.27	747.66	68.192	-196.37	569.61	94.994	-162.56	580.54	237.29	-226.85	429.2	78.845	-152.82	349.2	100.24	-215.05	352.14	83.132	-163.36	424.76	91.742	-196.85	137.28	117.38	-164.37	154.84	212.33	-259.87	96.454	170.41	-241.67	74.134	203.81	-247.95	70.279	141.8	-46.461	83.086	89.95	-12.241	103.02	208.07	42.551	120.81	150.48	-462.35	1591.5	315.87	-557.44	1287.1	327.49
206	0.85417	-258.1	1271.4	272.11	-348.62	1517.8	464.74	-400.24	1544.8	137.85	-344.56	1848.1	297.59	-307.16	1013.5	425.01	-309.07	1027	160.05	-543.89	1069.2	330.67	-545.34	1066.2	227.92	-392.39	962.41	501.26	-408.13	982.25	75.108	-389.28	1114.9	492.08	-420.45	1112.6	88.675	-557.96	1030.9	277.31	-432.02	656.83	468.65	-369.28	580.43	440.19	-437.43	570.06	446.38	-358.98	667.91	464.53	-424.28	502.57	437.05	-420.25	508.46	295.18	-523.87	364.87	456.84	-493.35	269.48	409.7	-549.7	299.47	443.98	-469.99	336.92	429.28	-616.57	108.56	402.64	-586.82	109.18	308.9	-690.91	80.052	343.98	-676.92	48.402	316.71	-683.2	50.812	381	-495.56	35.62	445.42	-459.45	39.84	320.68	-397.65	52.075	378.81	-316.84	700.21	92.144	-210.6	670.09	84.84	-269.85	623.67	109.33	-266.32	746.29	68.132	-189.69	568.75	95.273	-156.83	579.4	237.79	-217.26	427.77	78.509	-141.6	349.25	99.913	-203.84	350.91	82.541	-153.7	424.63	91.671	-180.76	136.05	116.15	-149.24	154.07	211.33	-243.1	93.45	168.66	-224.5	71.406	202.1	-230.31	67.623	140.02	-28.845	85.607	89.394	4.166	105.93	207.79	58.868	125.28	150.59	-456.22	1590.3	315.48	-551.4	1285.8	326.94
207	0.85833	-252.03	1269.7	271.74	-342.45	1516.2	464.29	-393.87	1543.4	137.41	-338.2	1846.7	297.28	-301.49	1012	424.84	-303.03	1025.4	159.68	-538.09	1067.9	330.25	-539.5	1064.8	227.53	-386.98	961.36	501.08	-402.12	980.7	74.798	-383.57	1113.5	491.75	-414.59	1110.8	88.213	-552.12	1029.5	276.88	-428.16	656.12	468.59	-365.86	579.4	440.23	-433.98	569.37	446.38	-355.05	666.82	464.62	-421.35	501.67	437.08	-416.98	507.51	295.2	-521.81	364.59	456.76	-491.83	268.97	409.66	-548.04	299.35	443.86	-468.06	336.27	429.27	-616.21	108.83	402.5	-586.36	109.32	308.78	-690.64	80.526	343.77	-676.71	48.816	316.53	-683.05	51.281	380.81	-495.56	35.599	445.48	-459.24	39.848	320.68	-397.5	51.748	378.9	-310.87	698.74	92.102	-204.57	668.75	84.962	-263.8	622.32	109.47	-260.33	744.86	68.046	-183.02	567.82	95.546	-151.16	578.17	238.29	-207.78	426.35	78.184	-130.57	349.28	99.61	-192.8	349.73	81.966	-144.17	424.46	91.613	-164.99	134.94	114.96	-134.43	153.37	210.37	-226.64	90.618	166.95	-207.68	68.855	200.45	-213.02	65.153	138.29	-11.669	88.171	88.907	20.136	108.85	207.58	74.73	129.71	150.77	-450.1	1589	315.05	-545.36	1284.4	326.36
